<?xml version="1.0" encoding="utf-8"?>
<!-- Generator: Adobe Illustrator 19.1.1, SVG Export Plug-In . SVG Version: 6.00 Build 0)  -->
<svg version="1.1" id="Layer_1" xmlns="http://www.w3.org/2000/svg" xmlns:xlink="http://www.w3.org/1999/xlink" x="0px" y="0px"
	 viewBox="171 -171 512 512" style="enable-background:new 171 -171 512 512;" xml:space="preserve">
<style type="text/css">
	.st0{fill:#B1DCFF;}
	.st1{fill:#E8F3FF;}
	.st2{fill:#B9DCFF;}
	.st3{fill:#009BE5;}
</style>
<path class="st0" d="M416.5,325.4C299.1,265.6,225.2,145,225.2,13.3v-56.9c0-12.8,7.3-24.4,18.8-29.9L402-150c9.1-4.4,19.8-4.4,29,0
	l158,76.5c11.5,5.6,18.8,17.2,18.8,29.9v56.9C607.7,145,533.9,265.6,416.5,325.4z"/>
<path class="st1" d="M256.4-33.2v56.9c0,119.8,61.1,230.4,160.5,294.4c2.7,1.7,2.6,5.8-0.4,7.3C299.1,265.6,225.2,145,225.2,13.3
	v-56.9c0-12.8,7.3-24.4,18.8-29.9c168.1-81.4,158.3-76.7,159.4-77.1c13.6-5.9,22.6,14.4,9.3,20.8c-22.3,10.7-62.6,30.4-137.5,66.7
	C263.7-57.6,256.4-46,256.4-33.2z"/>
<path class="st2" d="M607.7,13.3c0,65.9-18.5,128.9-51.6,183c-8.2,13.3-28.2,1.7-20.9-12.1C560.6,136.1,580,76.4,580,6.1
	c0-21.8,0.8-38.3,0.5-51.3c-0.4-17.4,25.7-18.9,27-1.6C607.8-44.5,607.7-48.7,607.7,13.3L607.7,13.3z"/>
<path class="st3" d="M394.1,31.7c0,9,5.7,17,14.2,19.9l27.2,9.4c21.9,7.5,36.6,28.2,36.6,51.3c0,24.6-16.5,45.5-39,52.1v20.2
	c0,9.2-7.4,16.6-16.6,16.6s-16.6-7.4-16.6-16.6v-20.2c-22.5-6.6-39-27.5-39-52.1c0-9.2,7.4-16.6,16.6-16.6s16.6,7.4,16.6,16.6
	c0,11.6,9.4,21,21,21h2.6c11.6,0,21-9.4,21-21c0-9-5.7-17-14.2-19.9l-27-9.4c-21.9-7.5-36.6-28.2-36.6-51.3
	c0-24.6,16.5-45.5,39-52.1v-20.2c0-9.2,7.4-16.6,16.6-16.6s16.6,7.4,16.6,16.6v20.2c22.5,6.6,39,27.5,39,52.1
	c0,9.2-7.4,16.6-16.6,16.6s-16.6-7.4-16.6-16.6c0-11.6-9.4-21-21-21h-2.6C403.6,10.7,394.1,20.1,394.1,31.7L394.1,31.7z M624.4-43.6
	c0,64.3,6.7,149.4-54.1,248.6c-37.2,60.7-85,102.2-145.9,135c-5.4,2.8-11.1,2.5-15.8,0c-122.8-62.8-200-189-200-326.7v-56.9
	c0-19,11.1-36.6,28.2-44.9l158-76.5c13.8-6.7,29.7-6.7,43.5,0l158,76.5C613.3-80.2,624.4-62.6,624.4-43.6L624.4-43.6z M591.1-43.6
	c0-6.3-3.7-12.2-9.4-15l-148.6-71.9v27.1c0,9.2-7.4,16.6-16.6,16.6s-16.6-7.4-16.6-16.6v-27.1L251.3-58.6c-5.7,2.8-9.4,8.6-9.4,15
	v56.9c0,116.8,59.9,223.1,158,283.7v-38.6c0-9.2,7.4-16.6,16.6-16.6s16.6,7.4,16.6,16.6V297c98.1-60.6,158-166.9,158-283.7V-43.6
	L591.1-43.6z"/>
</svg>
