<?xml version="1.0" encoding="utf-8"?>
<!-- Generator: Adobe Illustrator 19.1.1, SVG Export Plug-In . SVG Version: 6.00 Build 0)  -->
<svg version="1.1" id="icons" xmlns="http://www.w3.org/2000/svg" xmlns:xlink="http://www.w3.org/1999/xlink" x="0px" y="0px"
	 viewBox="171 -171 512 512" style="enable-background:new 171 -171 512 512;" xml:space="preserve">
<style type="text/css">
	.st0{fill:#D7E9FF;}
	.st1{fill:#B1DCFF;}
	.st2{fill:#5C9EFF;}
	.st3{fill:#FFFFFF;}
	.st4{fill:#94C1FF;}
	.st5{fill:#009BE5;}
</style>
<g>
	<g>
		<path class="st0" d="M575,101c-55.2,0-100,44.8-100,100s44.8,100,100,100s100-44.8,100-100S630.2,101,575,101z"/>
	</g>
	<g>
		<path class="st1" d="M451,245v56H179v-56.1c0-31,25-56,56-56v0.1l32-0.1l24,16.1l24-8.1l24,8.1l24-16.1l32,0.1
			C426,189,451,214,451,245L451,245z"/>
	</g>
	<g>
		<g>
			<path class="st2" d="M395,189l-32-0.1l-0.1,0.1l8.1,0c31,0,56,25,56,56v56h24v-56C451,214,426,189,395,189z"/>
		</g>
		<g>
			<path class="st2" d="M235,188.9L235,188.9c-0.1,0-0.3,0-0.4,0H235z"/>
		</g>
	</g>
	<g>
		<path class="st3" d="M475-131V53h24v24l40-24h128v-184H475z"/>
	</g>
	<g>
		<path class="st0" d="M621.5-54.3l-25.2,24.6L602.2,5L571-11.4L539.8,5l6-34.7l-25.3-24.6l34.9-5.1L571-91l15.6,31.6L621.5-54.3z"
			/>
	</g>
	<g>
		<path class="st0" d="M419,21v32c0,40.2-22.7,75-56,92.2c-14.4,7.5-30.7,11.8-48,11.8s-33.6-4.2-48-11.8C233.7,128,211,93.2,211,53
			V21l24-24c0,0,36.6,16,80,16s80-16,80-16L419,21z"/>
	</g>
	<g>
		<path class="st4" d="M395-3L395-3l0,56c0,40.2-22.7,75-56,92.2c-11,5.8-23.2,9.5-36,11c4,0.5,8,0.7,12,0.7
			c17.3,0,33.6-4.2,48-11.8c33.3-17.3,56-52.1,56-92.2V21L395-3z"/>
	</g>
	<g>
		<path class="st1" d="M363,145.2v43.7L339,205l-24-8.1l-24,8.1l-24-16.1v-43.7c14.4,7.5,30.7,11.8,48,11.8S348.6,152.8,363,145.2z"
			/>
	</g>
	<g>
		<path class="st1" d="M235-3l-24,24v-40c0-53.1,43-96,96-96h64v32c26.6,0,48,21.4,48,48v56L395-3c0,0-36.6,16-80,16S235-3,235-3z"
			/>
	</g>
	<g>
		<path class="st2" d="M371-59c13.2,0,24,10.8,24,24v32l24,24v-56c0-26.6-21.4-48-48-48v-32h-24v32C347-69.7,357.7-59,371-59z"/>
	</g>
	<g>
		<g>
			<path class="st4" d="M539,173h24v24h-24V173z"/>
		</g>
		<g>
			<path class="st4" d="M563,197h24v24h-24V197z"/>
		</g>
		<g>
			<path class="st4" d="M611,197h24v24h-24V197z"/>
		</g>
		<g>
			<path class="st4" d="M587,173h24v24h-24V173z"/>
		</g>
		<g>
			<path class="st4" d="M515,197h24v24h-24V197z"/>
		</g>
	</g>
</g>
<g>
	<g>
		<path class="st5" d="M451,253c-4.4,0-8-3.6-8-8c0-26.5-21.5-48-48-48c-4.4,0-8-3.6-8-8s3.6-8,8-8c35.3,0,64,28.7,64,64
			C459,249.4,455.4,253,451,253z"/>
	</g>
	<g>
		<path class="st5" d="M395,197l-32,0c-4.4,0-8-3.6-8-8c0-4.4,3.6-8,8-8h0l32,0c4.4,0,8,3.6,8,8C403,193.4,399.4,197,395,197z"/>
	</g>
	<g>
		<path class="st5" d="M451,309c-4.4,0-8-3.6-8-8v-56c0-4.4,3.6-8,8-8s8,3.6,8,8v56C459,305.4,455.4,309,451,309z"/>
	</g>
	<g>
		<path class="st5" d="M179,253c-4.4,0-8-3.6-8-8c0-17.1,6.6-33.2,18.7-45.3c12.1-12.1,28.2-18.7,45.3-18.7c4.4,0,8,3.6,8,8
			s-3.6,8-8,8c-12.8,0-24.9,5-34,14c-9.1,9.1-14,21.1-14,34C187,249.4,183.4,253,179,253z"/>
	</g>
	<g>
		<path class="st5" d="M235,197c-4.4,0-8-3.6-8-8c0-4.4,3.6-8,8-8l32,0h0c4.4,0,8,3.6,8,8c0,4.4-3.6,8-8,8L235,197z"/>
	</g>
	<g>
		<path class="st5" d="M179,309c-4.4,0-8-3.6-8-8l0-56c0-4.4,3.6-8,8-8c4.4,0,8,3.6,8,8l0,56C187,305.4,183.4,309,179,309z"/>
	</g>
	<g>
		<path class="st5" d="M267,197c-4.4,0-8-3.6-8-8l0-43.7c0-4.4,3.6-8,8-8c4.4,0,8,3.6,8,8l0,43.7C275,193.4,271.4,197,267,197z"/>
	</g>
	<g>
		<path class="st5" d="M363,196.9c-4.4,0-8-3.6-8-8v-43.7c0-4.4,3.6-8,8-8s8,3.6,8,8v43.7C371,193.4,367.4,196.9,363,196.9z"/>
	</g>
	<g>
		<path class="st5" d="M315,165c-61.8,0-112-50.2-112-112c0-4.4,3.6-8,8-8s8,3.6,8,8c0,52.9,43.1,96,96,96s96-43.1,96-96
			c0-4.4,3.6-8,8-8s8,3.6,8,8C427,114.7,376.8,165,315,165z"/>
	</g>
	<g>
		<path class="st5" d="M211,61c-4.4,0-8-3.6-8-8v-72c0-4.4,3.6-8,8-8s8,3.6,8,8v72C219,57.4,215.4,61,211,61z"/>
	</g>
	<g>
		<path class="st5" d="M419,61c-4.4,0-8-3.6-8-8v-88c0-4.4,3.6-8,8-8s8,3.6,8,8v88C427,57.4,423.4,61,419,61z"/>
	</g>
	<g>
		<path class="st5" d="M419-27c-4.4,0-8-3.6-8-8c0-22.1-17.9-40-40-40c-4.4,0-8-3.6-8-8s3.6-8,8-8c30.9,0,56,25.1,56,56
			C427-30.6,423.4-27,419-27z"/>
	</g>
	<g>
		<path class="st5" d="M371-75c-4.4,0-8-3.6-8-8v-32c0-4.4,3.6-8,8-8s8,3.6,8,8v32C379-78.6,375.4-75,371-75z"/>
	</g>
	<g>
		<path class="st5" d="M371-107h-64c-4.4,0-8-3.6-8-8s3.6-8,8-8h64c4.4,0,8,3.6,8,8S375.4-107,371-107z"/>
	</g>
	<g>
		<path class="st5" d="M211-11c-4.4,0-8-3.6-8-8c0-57.3,46.7-104,104-104c4.4,0,8,3.6,8,8s-3.6,8-8,8c-48.5,0-88,39.5-88,88
			C219-14.6,215.4-11,211-11z"/>
	</g>
	<g>
		<g>
			<path class="st5" d="M419,29c-2,0-4.1-0.8-5.7-2.3l-24-24c-3.1-3.1-3.1-8.2,0-11.3s8.2-3.1,11.3,0l24,24c3.1,3.1,3.1,8.2,0,11.3
				C423.1,28.2,421,29,419,29L419,29z"/>
		</g>
		<g>
			<path class="st5" d="M315,21c-44.6,0-81.6-16-83.2-16.7c-4-1.8-5.9-6.5-4.1-10.5c1.8-4.1,6.5-5.9,10.5-4.1
				C238.6-10.2,273.9,5,315,5c41.3,0,76.4-15.2,76.8-15.3c4-1.8,8.8,0.1,10.5,4.1c1.8,4-0.1,8.8-4.1,10.5C396.6,5,359.6,21,315,21
				L315,21z"/>
		</g>
		<g>
			<path class="st5" d="M211,29c-2,0-4.1-0.8-5.7-2.3c-3.1-3.1-3.1-8.2,0-11.3l24-24c3.1-3.1,8.2-3.1,11.3,0c3.1,3.1,3.1,8.2,0,11.3
				l-24,24C215.1,28.2,213,29,211,29z"/>
		</g>
	</g>
	<g>
		<path class="st5" d="M291,213c-1.5,0-3.1-0.4-4.4-1.3l-24-16c-3.7-2.5-4.7-7.4-2.2-11.1c2.5-3.7,7.4-4.7,11.1-2.2l24,16
			c3.7,2.5,4.7,7.4,2.2,11.1C296.1,211.7,293.6,213,291,213z"/>
	</g>
	<g>
		<path class="st5" d="M291,213c-3.3,0-6.5-2.1-7.6-5.5c-1.4-4.2,0.9-8.7,5-10.1l24-8c4.2-1.4,8.7,0.8,10.1,5
			c1.4,4.2-0.9,8.7-5,10.1l-24,8C292.7,212.8,291.8,213,291,213z"/>
	</g>
	<g>
		<path class="st5" d="M339,213c-2.6,0-5.1-1.2-6.7-3.6c-2.5-3.7-1.5-8.6,2.2-11.1l24-16c3.7-2.4,8.6-1.5,11.1,2.2
			c2.5,3.7,1.5,8.6-2.2,11.1l-24,16C342.1,212.5,340.5,213,339,213L339,213z"/>
	</g>
	<g>
		<path class="st5" d="M339,213c-0.8,0-1.7-0.1-2.5-0.4l-24-8c-4.2-1.4-6.5-5.9-5-10.1c1.4-4.2,5.9-6.4,10.1-5l24,8
			c4.2,1.4,6.5,5.9,5,10.1C345.5,210.8,342.3,213,339,213L339,213z"/>
	</g>
	<g>
		<path class="st5" d="M315.2,245c-4.4,0-8-3.6-8-8s3.5-8,8-8h0.1c4.4,0,8,3.6,8,8S319.7,245,315.2,245z"/>
	</g>
	<g>
		<path class="st5" d="M315.2,277c-4.4,0-8-3.6-8-8s3.5-8,8-8h0.1c4.4,0,8,3.6,8,8S319.7,277,315.2,277z"/>
	</g>
	<g>
		<path class="st5" d="M499,85c-1.4,0-2.7-0.3-3.9-1c-2.5-1.4-4.1-4.1-4.1-7V61h-16c-4.4,0-8-3.6-8-8v-184c0-4.4,3.6-8,8-8h192
			c4.4,0,8,3.6,8,8V53c0,4.4-3.6,8-8,8H541.2l-38.1,22.9C501.9,84.6,500.4,85,499,85z M483,45h16c4.4,0,8,3.6,8,8v9.9l27.9-16.7
			c1.2-0.7,2.7-1.1,4.1-1.1h120v-168H483V45z"/>
	</g>
	<g>
		<path class="st5" d="M539.8,13c-1.7,0-3.3-0.5-4.7-1.5c-2.5-1.8-3.7-4.8-3.2-7.8l5.3-30.6L515-48.6c-2.2-2.1-3-5.3-2-8.2
			c0.9-2.9,3.4-5,6.5-5.4l30.7-4.5l13.7-27.8c2.7-5.5,11.7-5.5,14.3,0l13.7,27.8l30.7,4.5c3,0.4,5.5,2.5,6.5,5.4
			c0.9,2.9,0.2,6.1-2,8.2l-22.2,21.7l5.2,30.6c0.5,3-0.7,6-3.2,7.8c-2.5,1.8-5.7,2-8.4,0.6L571-2.3l-27.5,14.4
			C542.3,12.7,541.1,13,539.8,13L539.8,13z M571-19.4c1.3,0,2.6,0.3,3.7,0.9l16.8,8.8l-3.2-18.8c-0.4-2.6,0.4-5.2,2.3-7.1l13.6-13.3
			l-18.8-2.7c-2.6-0.4-4.9-2-6-4.4L571-72.9l-8.4,17.1c-1.2,2.4-3.4,4-6,4.4l-18.8,2.7l13.6,13.3c1.9,1.8,2.7,4.5,2.3,7.1l-3.2,18.7
			l16.9-8.8C568.5-19.1,569.7-19.4,571-19.4L571-19.4z"/>
	</g>
	<g>
		<path class="st5" d="M575,309c-59.5,0-108-48.4-108-108S515.5,93,575,93s108,48.4,108,108S634.6,309,575,309z M575,109
			c-50.7,0-92,41.3-92,92s41.3,92,92,92s92-41.3,92-92S625.7,109,575,109z"/>
	</g>
	<g>
		<g>
			<path class="st5" d="M539,229h-24c-4.4,0-8-3.6-8-8v-24c0-4.4,3.6-8,8-8h24c4.4,0,8,3.6,8,8v24C547,225.4,543.4,229,539,229z
				 M523,213h8v-8h-8V213z"/>
		</g>
		<g>
			<path class="st5" d="M587,229h-24c-4.4,0-8-3.6-8-8v-24c0-4.4,3.6-8,8-8h24c4.4,0,8,3.6,8,8v24C595,225.4,591.4,229,587,229z
				 M571,213h8v-8h-8V213z"/>
		</g>
		<g>
			<path class="st5" d="M635,229h-24c-4.4,0-8-3.6-8-8v-24c0-4.4,3.6-8,8-8h24c4.4,0,8,3.6,8,8v24C643,225.4,639.4,229,635,229z
				 M619,213h8v-8h-8V213z"/>
		</g>
		<g>
			<path class="st5" d="M563,205h-24c-4.4,0-8-3.6-8-8v-24c0-4.4,3.6-8,8-8h24c4.4,0,8,3.6,8,8v24C571,201.4,567.4,205,563,205z
				 M547,189h8v-8h-8V189z"/>
		</g>
		<g>
			<path class="st5" d="M611,205h-24c-4.4,0-8-3.6-8-8v-24c0-4.4,3.6-8,8-8h24c4.4,0,8,3.6,8,8v24C619,201.4,615.4,205,611,205z
				 M595,189h8v-8h-8V189z"/>
		</g>
	</g>
</g>
</svg>
