<?xml version="1.0" encoding="utf-8"?>
<!-- Generator: Adobe Illustrator 19.1.1, SVG Export Plug-In . SVG Version: 6.00 Build 0)  -->
<svg version="1.1" id="Слой_1" xmlns="http://www.w3.org/2000/svg" xmlns:xlink="http://www.w3.org/1999/xlink" x="0px" y="0px"
	 viewBox="171 -171 512 512" style="enable-background:new 171 -171 512 512;" xml:space="preserve">
<style type="text/css">
	.st0{fill:#B1DCFF;}
	.st1{fill:#009BE5;}
</style>
<g>
	<g>
		<circle class="st0" cx="427" cy="85" r="24"/>
		<path class="st0" d="M427-155C294.5-155,187-47.6,187,85s107.5,240,240,240S667,217.5,667,85S559.5-155,427-155z M427,293
			c-114.9,0-208-93.1-208-208s93.1-208,208-208S635-29.9,635,85S541.9,293,427,293z"/>
		<circle class="st0" cx="427" cy="85" r="24"/>
		<circle class="st0" cx="427" cy="85" r="24"/>
	</g>
	<g>
		<path class="st1" d="M602.4-90.4C506-187.7,349-188.6,251.6-92.2s-98.2,253.4-1.9,350.7c0.6,0.6,1.2,1.2,1.9,1.9
			c96.3,97.4,253.4,98.2,350.7,1.9s98.2-253.4,1.9-350.7C603.6-89.1,603-89.7,602.4-90.4L602.4-90.4z M591,249
			c-90.6,90.6-237.5,90.6-328.1,0s-90.6-237.5,0-328.1s237.5-90.6,328.1,0S681.7,158.4,591,249z"/>
		<path class="st1" d="M579.7-67.7c-84.4-84.4-221.1-84.4-305.5,0s-84.4,221.1,0,305.5s221.1,84.4,305.5,0S664.1,16.6,579.7-67.7
			C579.7-67.7,579.7-67.7,579.7-67.7z M427,285c-110.3,0-200-89.7-200-200s89.7-200,200-200S627-25.3,627,85S537.3,285,427,285
			L427,285z"/>
		<path class="st1" d="M434.9,54L434.9,54c0-0.3,0.1-0.7,0.1-1v-80l9.6,12.8c2.6,3.5,7.7,4.3,11.2,1.6c3.5-2.6,4.3-7.7,1.6-11.2
			c0,0,0,0,0,0l-24-32c-2.7-3.5-7.7-4.3-11.2-1.6c-0.6,0.5-1.1,1-1.6,1.6l-24,32c-2.7,3.5-1.9,8.5,1.6,11.2
			c3.5,2.7,8.5,1.9,11.2-1.6L419-27v80c0,0.3,0,0.7,0.1,1h0c-2.9,0.7-5.7,1.9-8.3,3.4l-18.1-18.1c-3.1-3.1-8.2-3.1-11.3,0
			c-3.1,3.1-3.1,8.2,0,11.3l18.1,18.1c-9,15.2-3.9,34.8,11.3,43.8c15.2,9,34.8,3.9,43.8-11.3s3.9-34.8-11.3-43.8
			C440.6,55.9,437.9,54.7,434.9,54L434.9,54z M427,101c-8.8,0-16-7.2-16-16c0-3,0.8-5.8,2.4-8.4l0,0c1.3-2.1,3.1-3.9,5.3-5.3l0,0
			c7.5-4.6,17.4-2.3,22,5.3c4.6,7.5,2.3,17.4-5.3,22C432.8,100.2,430,101,427,101L427,101z"/>
		<path class="st1" d="M427-75c4.4,0,8-3.6,8-8v-16c0-4.4-3.6-8-8-8s-8,3.6-8,8v16C419-78.6,422.6-75,427-75z"/>
		<path class="st1" d="M427,245c-4.4,0-8,3.6-8,8v16c0,4.4,3.6,8,8,8s8-3.6,8-8v-16C435,248.6,431.4,245,427,245z"/>
		<path class="st1" d="M611,77h-16c-4.4,0-8,3.6-8,8s3.6,8,8,8h16c4.4,0,8-3.6,8-8S615.4,77,611,77z"/>
		<path class="st1" d="M259,77h-16c-4.4,0-8,3.6-8,8s3.6,8,8,8h16c4.4,0,8-3.6,8-8S263.4,77,259,77z"/>
		<path class="st1" d="M551.5-50.8l-11.3,11.3c-3.1,3.1-3.1,8.2,0,11.3s8.2,3.1,11.3,0l11.3-11.3c3.1-3.1,3.1-8.2,0-11.3
			C559.6-53.9,554.6-53.9,551.5-50.8C551.5-50.8,551.5-50.8,551.5-50.8z"/>
		<path class="st1" d="M302.5,198.1l-11.3,11.3c-3.1,3.1-3.1,8.2,0,11.3s8.2,3.1,11.3,0l11.3-11.3c3.1-3.1,3.1-8.2,0-11.3
			S305.7,195,302.5,198.1L302.5,198.1z"/>
		<path class="st1" d="M551.5,198.1c-3.1-3.1-8.2-3.1-11.3,0s-3.1,8.2,0,11.3l0,0l11.3,11.3c3.1,3.1,8.2,3.1,11.3,0
			c3.1-3.1,3.1-8.2,0-11.3L551.5,198.1z"/>
		<path class="st1" d="M302.5-50.8c-3.1-3.1-8.2-3.1-11.3,0c-3.1,3.1-3.1,8.2,0,11.3l11.3,11.3c3.1,3.1,8.2,3.1,11.3,0
			s3.1-8.2,0-11.3L302.5-50.8z"/>
	</g>
</g>
</svg>
