<svg height="480pt" viewBox="0 0 480 480" width="480pt" xmlns="http://www.w3.org/2000/svg"><path d="m344 40v1.839844c-.074219-15.902344 10.894531-29.730469 26.398438-33.273438-15.257813 2.6875-26.386719 15.9375-26.398438 31.433594zm0 0" fill="#57a4ff"/><path d="m344 41.839844v-1.839844c.011719-15.496094 11.140625-28.746094 26.398438-31.433594.890624-.175781 1.816406-.183594 2.730468-.277344.910156-.097656 1.886719-.289062 2.871094-.289062h-336c-17.671875 0-32 14.328125-32 32v32h336zm0 0" fill="#57a4ff"/><path d="m373.121094 8.289062c-.914063.09375-1.839844.101563-2.730469.277344.890625-.160156 1.816406-.191406 2.730469-.277344zm0 0" fill="#57a4ff"/><path d="m408 408c0 17.671875 14.328125 32 32 32s32-14.328125 32-32v-32h-64zm0 0" fill="#57a4ff"/><path d="m264 395.679688c17.054688-15.417969 20.691406-40.808594 8.652344-60.394532-12.042969-19.585937-36.339844-27.800781-57.796875-19.539062-21.457031 8.261718-33.972657 30.648437-29.773438 53.253906 4.203125 22.605469 23.925781 39 46.917969 39 11.828125.011719 23.234375-4.378906 32-12.320312zm0 0" fill="#57a4ff"/><path d="m232 408c-11.828125.027344-23.242188-4.367188-32-12.320312v76.320312l32-32 32 32v-76.320312c-8.757812 7.953124-20.171875 12.347656-32 12.320312zm0 0" fill="#57a4ff"/><g fill="#1e81ce"><path d="m472 368h-56v-328c.023438-21.367188-16.75-38.984375-38.097656-40-.496094 0-.964844.0898438-1.453125.078125-.160157 0-.289063-.078125-.449219-.078125h-336c-22.082031.0273438-39.9726562 17.917969-40 40v32c0 4.417969 3.582031 8 8 8h40v328c.027344 22.082031 17.917969 39.972656 40 40h104v24c0 3.234375 1.949219 6.152344 4.9375 7.390625s6.429688.550781 8.71875-1.734375l26.34375-26.34375 26.34375 26.34375c2.289062 2.285156 5.730469 2.972656 8.71875 1.734375s4.9375-4.15625 4.9375-7.390625v-24h168c22.082031-.027344 39.972656-17.917969 40-40v-32c0-4.417969-3.582031-8-8-8zm-456-328c0-13.253906 10.746094-24 24-24h304c-5.203125 6.917969-8.011719 15.34375-8 24v24h-320zm242.632812 349.753906c-11.234374 9.71875-26.863281 12.566406-40.800781 7.429688-4.609375-1.667969-8.855469-4.214844-12.496093-7.496094-12.347657-11.070312-16.585938-28.613281-10.652344-44.101562 5.9375-15.484376 20.816406-25.703126 37.398437-25.683594 16.585938.019531 31.441407 10.273437 37.339844 25.773437 5.898437 15.503907 1.617187 33.035157-10.757813 44.078125zm-2.632812 62.933594-18.34375-18.34375c-3.125-3.121094-8.1875-3.121094-11.3125 0l-18.34375 18.34375v-42.113281c.328125.160156.671875.265625 1.007812.410156 1.390626.632813 2.808594 1.214844 4.25 1.734375l1.078126.351562c11.472656 3.917969 23.917968 3.917969 35.390624 0l.960938-.316406c1.53125-.535156 3.03125-1.144531 4.503906-1.832031.265625-.121094.542969-.203125.800782-.328125zm16-20.6875v-32.992188c21.539062-21.984374 21.300781-57.234374-.535156-78.925781-21.839844-21.6875-57.089844-21.6875-78.929688 0-21.835937 21.691407-22.074218 56.941407-.535156 78.925781v32.992188h-104c-13.253906 0-24-10.746094-24-24v-328h280c4.417969 0 8-3.582031 8-8v-30.160156c.027344-7.300782 3.027344-14.273438 8.3125-19.3125 3.183594-3.089844 7.183594-5.207032 11.527344-6.101563 1.058594-.1875 2.128906-.296875 3.199218-.328125.699219-.070312 1.398438-.101562 2.097657-.097656 12.808593.605469 22.878906 11.175781 22.863281 24v368c.011719 2 .175781 4 .488281 5.976562.097657.617188.246094 1.207032.375 1.824219.257813 1.351563.589844 2.683594.992188 4 .207031.671875.441406 1.328125.679687 1.992188.457032 1.238281.984375 2.445312 1.601563 3.640625.289062.597656.558593 1.191406.878906 1.773437.761719 1.382813 1.605469 2.71875 2.519531 4 .191406.273438.328125.570313.527344.800781zm192-24c0 13.253906-10.746094 24-24 24-13.234375-.046875-23.953125-10.765625-24-24v-24h48zm0 0"/><path d="m360 112h-256c-4.417969 0-8 3.582031-8 8s3.582031 8 8 8h256c4.417969 0 8-3.582031 8-8s-3.582031-8-8-8zm0 0"/><path d="m360 160h-256c-4.417969 0-8 3.582031-8 8s3.582031 8 8 8h256c4.417969 0 8-3.582031 8-8s-3.582031-8-8-8zm0 0"/><path d="m360 208h-256c-4.417969 0-8 3.582031-8 8s3.582031 8 8 8h256c4.417969 0 8-3.582031 8-8s-3.582031-8-8-8zm0 0"/><path d="m360 256h-256c-4.417969 0-8 3.582031-8 8s3.582031 8 8 8h256c4.417969 0 8-3.582031 8-8s-3.582031-8-8-8zm0 0"/><path d="m152 336h-48c-4.417969 0-8 3.582031-8 8s3.582031 8 8 8h48c4.417969 0 8-3.582031 8-8s-3.582031-8-8-8zm0 0"/><path d="m152 360h-16c-4.417969 0-8 3.582031-8 8s3.582031 8 8 8h16c4.417969 0 8-3.582031 8-8s-3.582031-8-8-8zm0 0"/><path d="m360 336h-48c-4.417969 0-8 3.582031-8 8s3.582031 8 8 8h48c4.417969 0 8-3.582031 8-8s-3.582031-8-8-8zm0 0"/><path d="m360 360h-16c-4.417969 0-8 3.582031-8 8s3.582031 8 8 8h16c4.417969 0 8-3.582031 8-8s-3.582031-8-8-8zm0 0"/><path d="m120 400h-16c-4.417969 0-8-3.582031-8-8v-16c0-4.417969-3.582031-8-8-8s-8 3.582031-8 8v16c0 13.253906 10.746094 24 24 24h16c4.417969 0 8-3.582031 8-8s-3.582031-8-8-8zm0 0"/></g></svg>