<?xml version="1.0" encoding="utf-8"?>
<!-- Generator: Adobe Illustrator 19.1.1, SVG Export Plug-In . SVG Version: 6.00 Build 0)  -->
<svg version="1.1" id="Слой_1" xmlns="http://www.w3.org/2000/svg" xmlns:xlink="http://www.w3.org/1999/xlink" x="0px" y="0px"
	 viewBox="171 -171 512 512" style="enable-background:new 171 -171 512 512;" xml:space="preserve">
<style type="text/css">
	.st0{fill:#B1DCFF;}
	.st1{fill:#009BE5;}
</style>
<g id="Warehouse">
	<g>
		<path class="st0" d="M195-67v48h464v-48l-232-80L195-67z M451-75c0,13.3-10.7,24-24,24s-24-10.7-24-24s10.7-24,24-24
			S451-88.3,451-75z"/>
		<path class="st0" d="M627,29v288h32V-19h-32V29z"/>
		<path class="st0" d="M195-19v336h32V29v-48H195z"/>
		<path class="st0" d="M491,245l-16,8v-64h-48v128h128V189h-48v64L491,245z"/>
		<path class="st0" d="M379,189v64l-16-8l-16,8v-64h-48v128h128V189H379z"/>
		<path class="st0" d="M443,61v64l-16-8l-16,8V61h-48v128h16h48h48h16V61H443z"/>
		<path class="st0" d="M227-19h400v48H227V-19z"/>
	</g>
	<path class="st1" d="M661.6-74.6l-232-80c-1.7-0.6-3.5-0.6-5.2,0l-232,80c-3.2,1.1-5.4,4.1-5.4,7.6v384c0,4.4,3.6,8,8,8h32
		c4.4,0,8-3.6,8-8V37h384v280c0,4.4,3.6,8,8,8h32c4.4,0,8-3.6,8-8V-67C667-70.4,664.8-73.4,661.6-74.6z M203-61.3l224-77.2l224,77.2
		V-27H203V-61.3z M219,309h-16V-11h16V309z M235,21v-32h384v32H235z M651,309h-16V-11h16V309z"/>
	<path class="st1" d="M427-43c17.7,0,32-14.3,32-32s-14.3-32-32-32c-17.7,0-32,14.3-32,32S409.3-43,427-43z M427-91
		c8.8,0,16,7.2,16,16s-7.2,16-16,16s-16-7.2-16-16S418.2-91,427-91z"/>
	<path class="st1" d="M595,309h-32V189c0-4.4-3.6-8-8-8h-56V61c0-4.4-3.6-8-8-8H363c-4.4,0-8,3.6-8,8v120h-56c-4.4,0-8,3.6-8,8v120
		h-32c-4.4,0-8,3.6-8,8s3.6,8,8,8h336c4.4,0,8-3.6,8-8S599.4,309,595,309z M483,197h16v43.1l-4.4-2.2c-2.3-1.1-4.9-1.1-7.2,0
		l-4.4,2.2L483,197z M435,69v43.1l-4.4-2.2c-2.3-1.1-4.9-1.1-7.2,0l-4.4,2.2V69H435z M371,69h32v56c0,4.4,3.5,8,8,8
		c1.3,0,2.5-0.3,3.6-0.8l12.4-6.3l12.4,6.2c4,2,8.8,0.4,10.7-3.6c0.6-1.1,0.8-2.3,0.8-3.6V69h32v112H371V69z M363,197h8v43.1
		l-4.4-2.2c-2.3-1.1-4.9-1.1-7.2,0l-4.4,2.2V197H363z M307,197h32v56c0,4.4,3.5,8,8,8c1.3,0,2.5-0.3,3.6-0.8l12.4-6.3l12.4,6.2
		c4,2,8.8,0.4,10.7-3.6c0.6-1.1,0.8-2.3,0.8-3.6v-56h32v112H307V197z M435,197h32v56c0,4.4,3.5,8,8,8c1.3,0,2.5-0.3,3.6-0.8
		l12.4-6.3l12.4,6.2c4,2,8.8,0.4,10.7-3.6c0.6-1.1,0.8-2.3,0.8-3.6v-56h32v112H435V197z"/>
</g>
</svg>
