<?xml version="1.0" encoding="utf-8"?>
<!-- Generator: Adobe Illustrator 19.1.1, SVG Export Plug-In . SVG Version: 6.00 Build 0)  -->
<svg version="1.1" id="Слой_1" xmlns="http://www.w3.org/2000/svg" xmlns:xlink="http://www.w3.org/1999/xlink" x="0px" y="0px"
	 viewBox="171 -171 512 512" style="enable-background:new 171 -171 512 512;" xml:space="preserve">
<style type="text/css">
	.st0{fill:#B1DCFF;}
	.st1{fill:#FFFFFF;}
	.st2{fill:#D7E9FF;}
	.st3{fill:#009BE5;}
</style>
<path class="st0" d="M359.1-124.2L347.8-113L229.1,5.8v0.1l-11.3,11.3L179-21.5L320.4-163L359.1-124.2z"/>
<path class="st1" d="M364.8-96l-11.4,11.4l-96.2,96.1L246,22.8l-17-16.9V5.8L347.8-113L364.8-96z"/>
<path class="st1" d="M625,5.8L625,5.8l-17,17l-11.4-11.3L489.3-95.9l17-17L625,5.8z"/>
<path class="st0" d="M675-21.5l-38.7,38.7L625,5.9V5.8L495-124.2l38.6-38.7L675-21.5z"/>
<path class="st2" d="M500.6-84.6l96.1,96.1L562.8,102L455.3-5.4c-6.2-6.2-16.3-6.2-22.6,0l-34,33.9c-9.4,9.4-24.6,9.4-33.9,0
	s-9.4-24.5,0-33.9L427-67.7L500.6-84.6z"/>
<path class="st2" d="M534.5,141.6c9.4,9.4,9.4,24.6,0,34s-24.5,9.4-33.9,0c9.4,9.4,9.4,24.5,0,33.9c-9.4,9.4-24.6,9.4-33.9,0
	c9.4,9.4,9.4,24.6,0,33.9c-9.4,9.4-24.6,9.4-33.9,0l-5.7-5.6c9.4-9.4,9.4-24.5,0-33.9c-9.4-9.4-24.6-9.4-34,0c9.4-9.4,9.4-24.6,0-34
	c-9.4-9.4-24.6-9.4-33.9,0c9.4-9.4,9.4-24.6,0-33.9c-9.4-9.4-24.5-9.4-33.9,0c9.4-9.4,9.4-24.6,0-33.9c-9.4-9.4-24.5-9.4-33.9,0V102
	l-34-90.5l96.2-96.1l73.6,17L364.8-5.5c-9.4,9.4-9.4,24.5,0,33.9s24.6,9.4,33.9,0l34-33.9c6.2-6.2,16.3-6.2,22.6,0L562.8,102
	l5.7,5.7c9.4,9.4,9.4,24.6,0,33.9C559,151,543.8,151,534.5,141.6z"/>
<path class="st2" d="M427,203.9c9.4,9.4,9.4,24.5,0,33.9l-5.7,5.6c-9.4,9.4-24.6,9.4-33.9,0c-9.4-9.4-9.4-24.5,0-33.9l5.6-5.6
	C402.5,194.4,417.7,194.4,427,203.9z"/>
<path class="st2" d="M393,169.9c9.4,9.4,9.4,24.5,0,34l-5.6,5.6c-9.4,9.4-24.6,9.4-33.9,0c-9.4-9.4-9.4-24.5,0-33.9l5.6-5.7
	C368.5,160.5,383.7,160.5,393,169.9z"/>
<path class="st2" d="M359.1,136c9.4,9.4,9.4,24.6,0,33.9l-5.6,5.7c-9.4,9.4-24.6,9.4-34,0c-9.4-9.4-9.4-24.6,0-33.9l5.7-5.7
	C334.6,126.6,349.8,126.6,359.1,136z"/>
<path class="st2" d="M325.2,102.1c9.4,9.4,9.4,24.6,0,33.9l-5.7,5.7c-9.4,9.4-24.5,9.4-33.9,0c-9.4-9.4-9.4-24.6,0-34l5.7-5.6
	C300.7,92.7,315.8,92.7,325.2,102.1z"/>
<g>
	<path class="st3" d="M636.3,25.2c-2,0-4.1-0.8-5.7-2.3L489.2-118.6c-1.5-1.5-2.3-3.5-2.3-5.7c0-2.1,0.8-4.2,2.3-5.7l38.7-38.7
		c3.1-3.1,8.2-3.1,11.3,0L680.7-27.2c1.5,1.5,2.3,3.5,2.3,5.7c0,2.1-0.8,4.2-2.3,5.7L642,22.8C640.4,24.4,638.4,25.2,636.3,25.2z
		 M506.2-124.2L636.3,5.9l27.4-27.4L533.6-151.6L506.2-124.2z"/>
	<path class="st3" d="M217.7,25.2c-2,0-4.1-0.8-5.7-2.3l-38.7-38.7c-1.5-1.5-2.3-3.5-2.3-5.7c0-2.1,0.8-4.2,2.3-5.7l141.4-141.4
		c3.1-3.1,8.2-3.1,11.3,0l38.7,38.7c1.5,1.5,2.3,3.5,2.3,5.7c0,2.1-0.8,4.2-2.3,5.7L223.4,22.8C221.8,24.4,219.8,25.2,217.7,25.2z
		 M190.3-21.5l27.4,27.4l130.1-130.1l-27.4-27.4L190.3-21.5z"/>
	<path class="st3" d="M291.2,110c-3.2,0-6.3-2-7.5-5.2l-33.9-90.5c-1.5-4.1,0.5-8.7,4.7-10.3c4.2-1.5,8.8,0.5,10.3,4.7l33.9,90.5
		c1.5,4.1-0.5,8.7-4.7,10.3C293.1,109.8,292.2,110,291.2,110z"/>
	<path class="st3" d="M427-59.7c-0.6,0-1.2-0.1-1.8-0.2l-73.5-17c-4.3-1-7-5.3-6-9.6s5.3-7,9.6-6l73.5,17c4.3,1,7,5.3,6,9.6
		C433.9-62.2,430.6-59.7,427-59.7z"/>
	<path class="st3" d="M551.5,156.6c-8.5,0-16.6-3.3-22.6-9.4l-5.6-5.6c-3.1-3.1-3.1-8.2,0-11.3c3.1-3.1,8.2-3.1,11.3,0l5.7,5.7
		c6,6.1,16.6,6.1,22.6,0c3-3,4.7-7,4.7-11.3c0-4.3-1.7-8.3-4.7-11.3l-5.7-5.7c-3.1-3.1-3.1-8.2,0-11.3c3.1-3.1,8.2-3.1,11.3,0
		l5.7,5.7c6,6,9.4,14.1,9.4,22.6c0,8.5-3.3,16.6-9.4,22.6C568,153.3,560,156.6,551.5,156.6z"/>
	<path class="st3" d="M517.5,190.6C517.5,190.6,517.5,190.6,517.5,190.6c-8.6,0-16.6-3.3-22.6-9.4l-5.6-5.6c-3.1-3.1-3.1-8.2,0-11.3
		c3.1-3.1,8.2-3.1,11.3,0l5.7,5.7c3,3,7,4.7,11.3,4.7c4.3,0,8.3-1.7,11.3-4.7c6.2-6.2,6.2-16.4,0-22.6l-5.6-5.6
		c-3.1-3.1-3.1-8.2,0-11.3c3.1-3.1,8.2-3.1,11.3,0l5.7,5.7c12.5,12.5,12.5,32.8,0,45.2C534.1,187.3,526.1,190.6,517.5,190.6z"/>
	<path class="st3" d="M483.6,224.5c-8.2,0-16.4-3.1-22.6-9.3l-5.7-5.7c-3.1-3.1-3.1-8.2,0-11.3c3.1-3.1,8.2-3.1,11.3,0l5.7,5.7
		c6.2,6.2,16.4,6.2,22.6,0c6.2-6.2,6.2-16.4,0-22.6l-5.6-5.6c-3.1-3.1-3.1-8.2,0-11.3c3.1-3.1,8.2-3.1,11.3,0l5.7,5.7
		c12.5,12.5,12.5,32.8,0,45.2C500,221.4,491.8,224.5,483.6,224.5z"/>
	<path class="st3" d="M449.6,258.4c-8.2,0-16.4-3.1-22.6-9.3l-5.7-5.7c-3.1-3.1-3.1-8.2,0-11.3c3.1-3.1,8.2-3.1,11.3,0l5.7,5.7
		c6.2,6.2,16.4,6.2,22.6,0c3-3,4.7-7,4.7-11.3c0-4.3-1.7-8.3-4.7-11.3l-5.7-5.7c-3.1-3.1-3.1-8.2,0-11.3c3.1-3.1,8.2-3.1,11.3,0
		l5.7,5.7c6,6,9.4,14.1,9.4,22.6c0,8.6-3.3,16.6-9.4,22.6C466,255.3,457.8,258.4,449.6,258.4z"/>
	<path class="st3" d="M246,30.8c-2,0-4.1-0.8-5.7-2.3c-3.1-3.1-3.1-8.2,0-11.3l118.8-118.8c3.1-3.1,8.2-3.1,11.3,0
		c3.1,3.1,3.1,8.2,0,11.3L251.7,28.5C250.1,30,248,30.8,246,30.8z"/>
	<path class="st3" d="M364.8-88c-2.1,0-4.1-0.8-5.7-2.3l-17-17c-3.1-3.1-3.1-8.2,0-11.3c3.1-3.1,8.2-3.1,11.3,0l17,17
		c3.1,3.1,3.1,8.2,0,11.3C368.9-88.8,366.8-88,364.8-88z"/>
	<path class="st3" d="M246,30.8c-2,0-4.1-0.8-5.7-2.3l-17-17c-3.1-3.1-3.1-8.2,0-11.3c3.1-3.1,8.2-3.1,11.3,0l17,17
		c3.1,3.1,3.1,8.2,0,11.3C250.1,30,248,30.8,246,30.8z"/>
	<path class="st3" d="M562.8,110c-0.9,0-1.9-0.2-2.8-0.5c-4.1-1.6-6.2-6.2-4.7-10.3l33.9-90.5c1.5-4.2,6.2-6.2,10.3-4.7
		c4.1,1.6,6.2,6.2,4.7,10.3l-33.9,90.5C569.1,108,566,110,562.8,110z"/>
	<path class="st3" d="M427-59.7c-3.6,0-6.9-2.5-7.8-6.2c-1-4.3,1.7-8.6,6-9.6l73.5-17c4.3-1,8.6,1.7,9.6,6s-1.7,8.6-6,9.6l-73.5,17
		C428.2-59.7,427.6-59.7,427-59.7z"/>
	<path class="st3" d="M364.8,2.6c-2,0-4.1-0.8-5.7-2.3c-3.1-3.1-3.1-8.2,0-11.3l62.2-62.2c3.1-3.1,8.2-3.1,11.3,0
		c3.1,3.1,3.1,8.2,0,11.3L370.5,0.2C368.9,1.8,366.8,2.6,364.8,2.6z"/>
	<path class="st3" d="M398.7,36.5c-2.1,0-4.1-0.8-5.7-2.3c-3.1-3.1-3.1-8.2,0-11.3L427-11.1c3.1-3.1,8.2-3.1,11.3,0
		c3.1,3.1,3.1,8.2,0,11.3l-33.9,33.9C402.8,35.7,400.8,36.5,398.7,36.5z"/>
	<path class="st3" d="M455.3,2.6c-2,0-4.1-0.8-5.7-2.3c-3.1-3.1-8.2-3.1-11.3,0c-3.1,3.1-8.2,3.1-11.3,0c-3.1-3.1-3.1-8.2,0-11.3
		c9.4-9.4,24.6-9.4,33.9,0c3.1,3.1,3.1,8.2,0,11.3C459.4,1.8,457.3,2.6,455.3,2.6z"/>
	<path class="st3" d="M562.8,110c-2,0-4.1-0.8-5.7-2.3L449.6,0.2c-3.1-3.1-3.1-8.2,0-11.3c3.1-3.1,8.2-3.1,11.3,0L568.4,96.4
		c3.1,3.1,3.1,8.2,0,11.3C566.9,109.2,564.8,110,562.8,110z"/>
	<path class="st3" d="M381.8,43.5c-8.2,0-16.4-3.1-22.6-9.4c-12.5-12.5-12.5-32.8,0-45.2c3.1-3.1,8.2-3.1,11.3,0
		c3.1,3.1,3.1,8.2,0,11.3c-6.2,6.2-6.2,16.4,0,22.6c6.2,6.2,16.4,6.2,22.6,0c3.1-3.1,8.2-3.1,11.3,0c3.1,3.1,3.1,8.2,0,11.3
		C398.2,40.4,390,43.5,381.8,43.5z"/>
	<path class="st3" d="M302.6,156.7c-8.5,0-16.6-3.3-22.6-9.4c-12.5-12.5-12.5-32.8,0-45.2l5.7-5.7c12.1-12.1,33.2-12.1,45.2,0
		c12.5,12.5,12.5,32.8,0,45.2l-5.7,5.7C319.1,153.3,311.1,156.7,302.6,156.7z M308.2,103c-4.3,0-8.3,1.7-11.3,4.7l-5.7,5.7
		c-6.2,6.2-6.2,16.4,0,22.6c6,6.1,16.6,6.1,22.6,0l5.7-5.7c6.2-6.2,6.2-16.4,0-22.6C316.5,104.7,312.5,103,308.2,103z"/>
	<path class="st3" d="M336.5,190.6c-8.5,0-16.6-3.3-22.6-9.4c-12.5-12.5-12.5-32.8,0-45.2l5.7-5.7c12.1-12.1,33.2-12.1,45.3,0
		c12.5,12.5,12.5,32.8,0,45.2l-5.7,5.7C353.1,187.3,345,190.6,336.5,190.6z M342.2,136.9c-4.3,0-8.3,1.7-11.3,4.7l-5.7,5.7
		c-6.2,6.2-6.2,16.4,0,22.6c6,6,16.6,6,22.6,0l5.7-5.7c6.2-6.2,6.2-16.4,0-22.6C350.5,138.6,346.4,136.9,342.2,136.9z"/>
	<path class="st3" d="M370.4,224.5c-8.5,0-16.6-3.3-22.6-9.4c-12.5-12.5-12.5-32.8,0-45.3l5.7-5.7c12.1-12.1,33.2-12.1,45.2,0
		c12.5,12.5,12.5,32.8,0,45.3l-5.7,5.7C387,221.2,379,224.5,370.4,224.5z M376.1,170.9c-4.3,0-8.3,1.7-11.3,4.7l-5.7,5.7
		c-6.2,6.2-6.2,16.4,0,22.6c6,6,16.6,6,22.6,0l5.7-5.7c6.2-6.2,6.2-16.4,0-22.6C384.4,172.5,380.4,170.9,376.1,170.9z"/>
	<path class="st3" d="M404.4,258.5c-8.5,0-16.6-3.3-22.6-9.4c-12.5-12.5-12.5-32.8,0-45.2l5.7-5.7c12.1-12.1,33.2-12.1,45.2,0
		c12.5,12.5,12.5,32.8,0,45.2l-5.7,5.7C421,255.2,412.9,258.5,404.4,258.5z M410,204.8c-4.3,0-8.3,1.7-11.3,4.7l-5.7,5.7
		c-6.2,6.2-6.2,16.4,0,22.6c6,6.1,16.6,6.1,22.6,0l5.7-5.7c6.2-6.2,6.2-16.4,0-22.6C418.3,206.5,414.3,204.8,410,204.8z"/>
	<path class="st3" d="M608,30.8c-2,0-4.1-0.8-5.7-2.3L483.6-90.3c-3.1-3.1-3.1-8.2,0-11.3c3.1-3.1,8.2-3.1,11.3,0L613.7,17.2
		c3.1,3.1,3.1,8.2,0,11.3C612.1,30,610.1,30.8,608,30.8z"/>
	<path class="st3" d="M489.2-87.9c-2.1,0-4.1-0.8-5.7-2.3c-3.1-3.1-3.1-8.2,0-11.3l17-17c3.1-3.1,8.2-3.1,11.3,0
		c3.1,3.1,3.1,8.2,0,11.3l-17,17C493.3-88.7,491.3-87.9,489.2-87.9z"/>
	<path class="st3" d="M608,30.8c-2,0-4.1-0.8-5.7-2.3c-3.1-3.1-3.1-8.2,0-11.3l17-17c3.1-3.1,8.2-3.1,11.3,0c3.1,3.1,3.1,8.2,0,11.3
		l-17,17C612.1,30,610.1,30.8,608,30.8z"/>
</g>
</svg>
