<?xml version="1.0" encoding="utf-8"?>
<!-- Generator: Adobe Illustrator 19.1.1, SVG Export Plug-In . SVG Version: 6.00 Build 0)  -->
<svg version="1.1" id="Capa_1" xmlns="http://www.w3.org/2000/svg" xmlns:xlink="http://www.w3.org/1999/xlink" x="0px" y="0px"
	 viewBox="107 -107 384 384" style="enable-background:new 107 -107 384 384;" xml:space="preserve">
<style type="text/css">
	.st0{fill:#0076AF;}
</style>
<g>
	<g>
		<path class="st0" d="M460.2,145.1c-23.5,0-46.6-3.7-68.5-10.9c-10.7-3.7-23.9-0.3-30.4,6.4l-43.2,32.6
			c-50.1-26.7-80.9-57.6-107.3-107.3l31.6-42.1c8.2-8.2,11.2-20.2,7.6-31.4c-7.3-22-10.9-45.1-10.9-68.6c0-17-13.8-30.8-30.8-30.8
			h-70.5c-17,0-30.8,13.8-30.8,30.8C107,118.6,265.4,277,460.2,277c17,0,30.8-13.8,30.8-30.8v-70.3
			C491,158.9,477.2,145.1,460.2,145.1z"/>
	</g>
</g>
</svg>
