<?xml version="1.0" encoding="utf-8"?>
<!-- Generator: Adobe Illustrator 19.1.1, SVG Export Plug-In . SVG Version: 6.00 Build 0)  -->
<svg version="1.1" id="Слой_1" xmlns="http://www.w3.org/2000/svg" xmlns:xlink="http://www.w3.org/1999/xlink" x="0px" y="0px"
	 viewBox="155 -155 480 480" style="enable-background:new 155 -155 480 480;" xml:space="preserve">
<style type="text/css">
	.st0{fill:#009BE5;}
</style>
<g>
	<path class="st0" d="M499,261.7H371c-4.4,0-8,3.6-8,8v48c0,4.4,3.6,8,8,8s8-3.6,8-8v-40h112v40c0,4.4,3.6,8,8,8s8-3.6,8-8v-48
		C507,265.3,503.4,261.7,499,261.7z"/>
	<path class="st0" d="M483,29.7c0,4.4-3.6,8-8,8s-8-3.6-8-8s3.6-8,8-8S483,25.3,483,29.7z"/>
	<path class="st0" d="M403,29.7c0,4.4-3.6,8-8,8s-8-3.6-8-8s3.6-8,8-8S403,25.3,403,29.7z"/>
	<path class="st0" d="M590,139c-4.1-1.7-8.8,0.3-10.4,4.4c-1.7,4.1,0.3,8.8,4.4,10.4c21.2,8.5,35,29.1,35,51.9v112c0,4.4,3.6,8,8,8
		s8-3.6,8-8v-112C635,176.4,617.2,150,590,139z"/>
	<path class="st0" d="M547-42.3h-8c-3.4-45.2-35.8-82.9-80-93v-3c0-8.8-7.2-16-16-16h-16c-8.8,0-16,7.2-16,16v3
		c-44.2,10.2-76.6,47.9-80,93h-8c-11.6,0.1-21.5,8.5-23.5,19.9S304,0.3,315,4.2v9.5c0,13.3,10.7,24,24,24h8v8
		c0,29.7,15.1,57.5,40,73.7v14.3h-17.4c-3.4-9.6-12.4-16-22.6-16h-8c-4.4,0-8,3.6-8,8c0,4.4,3.6,8,8,8h8c4.4,0,8,3.6,8,8v72
		c0,8.8-7.2,16-16,16s-16-7.2-16-16v-72c0-4.4-3.6-8-8-8h-8c-10.6,0-21.1,2.4-30.6,7c-3.3,1.6-5.1,5.3-4.3,9s4,6.2,7.8,6.2
		c1.2,0,2.4-0.2,3.4-0.7c7.4-3.6,15.5-5.4,23.8-5.4v168c0,4.4,3.6,8,8,8s8-3.6,8-8v-76.3c1.1,0.6,2.1,1.2,3.3,1.7
		c1.7,0.7,3.5,1.2,5.3,1.6h1.4c2,0.5,4,0.9,6.1,1c17.7,0,32-14.3,32-32h128c0,17.7,14.3,32,32,32c1.9,0,3.9-0.2,5.8-0.6h1.4
		c1.8-0.4,3.6-0.9,5.3-1.6c1.1-0.5,2.2-1,3.3-1.7v75.8c0,4.4,3.6,8,8,8s8-3.6,8-8v-176c0-13.3-10.7-24-24-24h-16
		c-10.1,0-19.2,6.4-22.6,16H483v-14.3c24.9-16.2,40-43.9,40-73.7v-8h8c13.3,0,24-10.7,24-24V4.2c10.9-4,17.4-15.2,15.5-26.6
		C568.5-33.8,558.6-42.2,547-42.3z M339,21.7c-4.4,0-8-3.6-8-8v-8h16v16H339z M523,133.7h16c4.4,0,8,3.6,8,8v72c0,8.8-7.2,16-16,16
		c-8.8,0-16-7.2-16-16v-72C515,137.3,518.6,133.7,523,133.7z M499,197.7H371v-48h16.7c4,23,24,39.7,47.3,39.7s43.3-16.8,47.3-39.7
		H499V197.7z M467,141.7c0,17.7-14.3,32-32,32s-32-14.3-32-32v-14.1c20.6,8.1,43.4,8.1,64,0V141.7z M507,45.7c0,39.8-32.2,72-72,72
		s-72-32.2-72-72v-40h144V45.7z M531,21.7h-8v-16h16v8C539,18.1,535.4,21.7,531,21.7z M547-10.3H323c-4.4,0-8-3.6-8-8s3.6-8,8-8h136
		c4.4,0,8-3.6,8-8s-3.6-8-8-8H347c3.4-36.3,28.9-66.8,64-76.6v28.6c0,8.8,7.2,16,16,16h16c4.4,0,8-3.6,8-8s-3.6-8-8-8h-16v-48h16v32
		c0,4.4,3.6,8,8,8s8-3.6,8-8v-12.6c35.1,9.8,60.6,40.2,64,76.6h-32c-4.4,0-8,3.6-8,8s3.6,8,8,8h56c4.4,0,8,3.6,8,8
		S551.4-10.3,547-10.3z"/>
	<path class="st0" d="M187,269.7c0,13.3,10.7,24,24,24s24-10.7,24-24s-10.7-24-24-24C197.8,245.7,187,256.4,187,269.7z M219,269.7
		c0,4.4-3.6,8-8,8s-8-3.6-8-8s3.6-8,8-8S219,265.3,219,269.7z"/>
	<path class="st0" d="M227,29.7c-4.4,0-8,3.6-8,8v40h-16v-40c0-4.4-3.6-8-8-8c-22.1,0-40,17.9-40,40v32c0,15.9,9.5,30.2,24,36.6
		v85.4c-20.1,14-28.8,39.4-21.4,62.7c7.3,23.3,29,39.2,53.4,39.2c24.5,0,46.1-15.9,53.4-39.2c7.3-23.3-1.4-48.7-21.4-62.7v-85.5
		c14.5-6.3,24-20.7,24-36.6V69.7C267,47.6,249.1,29.7,227,29.7z M251,101.7c-0.1,10.9-7.4,20.4-18,23.1c-3.6,0.9-6.1,4.3-6,8v96
		c0,2.8,1.5,5.5,4,6.9c15.7,9.1,23.3,27.5,18.6,45s-20.5,29.6-38.6,29.6s-34-12.2-38.6-29.6c-4.7-17.5,3-35.9,18.6-45
		c2.5-1.4,4-4,4-6.9v-96c0.1-3.7-2.4-7.1-6-8c-10.6-2.7-17.9-12.2-18-23.1v-32c0-10.2,6.4-19.2,16-22.6v38.6c0,4.4,3.6,8,8,8h32
		c4.4,0,8-3.6,8-8V47c9.6,3.4,16,12.5,16,22.6V101.7z"/>
	<path class="st0" d="M227-114.3c-13.3,0-24,10.7-24,24s10.7,24,24,24s24-10.7,24-24S240.3-114.3,227-114.3z M227-82.3
		c-4.4,0-8-3.6-8-8s3.6-8,8-8s8,3.6,8,8S231.4-82.3,227-82.3z"/>
	<path class="st0" d="M274.5-44.5l16-27.7c1.1-1.8,1.4-4,0.8-6.1s-1.9-3.8-3.8-4.9l-8.6-5c0.1-1.5,0.1-3,0-4.5l8.6-5
		c1.9-1.1,3.2-2.8,3.8-4.9c0.6-2.1,0.3-4.3-0.8-6.1l-16-27.7c-1.1-1.9-2.8-3.2-4.9-3.8s-4.2-0.3-6.1,0.8l-8.6,5l-3.9-2.2v-9.9
		c0-4.4-3.6-8-8-8h-32c-4.4,0-8,3.6-8,8v9.9l-3.9,2.2l-8.6-5c-1.8-1.1-4-1.4-6.1-0.8c-2.1,0.6-3.8,1.9-4.9,3.8l-16,27.7
		c-1.1,1.8-1.4,4-0.8,6.1c0.6,2.1,1.9,3.8,3.8,4.9l8.6,5c-0.1,1.5-0.1,3,0,4.5l-8.6,5c-1.9,1.1-3.2,2.8-3.8,4.9s-0.3,4.3,0.8,6.1
		l16,27.7c1.1,1.9,2.8,3.2,4.9,3.8c2.1,0.5,4.2,0.2,6.1-0.8l8.6-5l3.9,2.2v9.9c0,4.4,3.6,8,8,8h32c4.4,0,8-3.6,8-8v-9.9l3.9-2.2
		l8.6,5c1.9,1,4,1.3,6.1,0.8C271.6-41.3,273.4-42.6,274.5-44.5z M264.6-59.3l-6.2-3.5c-2.8-1.6-6.4-1.4-9,0.6
		c-2.8,2.3-6,4.1-9.4,5.4c-3.1,1.2-5.1,4.1-5.1,7.4v7h-16v-7c0-3.3-2-6.3-5.1-7.4c-3.4-1.4-6.5-3.2-9.4-5.4c-2.6-2-6.1-2.3-9-0.6
		l-6.2,3.5l-8-13.9l6.2-3.5c2.8-1.6,4.4-4.8,3.9-8c-0.6-3.6-0.6-7.3,0-10.9c0.4-3.2-1.1-6.4-3.9-8l-6.2-3.7l8-13.9l6.2,3.5
		c2.8,1.6,6.4,1.4,9-0.6c2.8-2.3,6-4.1,9.4-5.4c3.1-1.2,5.1-4.1,5.1-7.4v-7h16v7c0,3.3,2,6.3,5.1,7.4c3.4,1.4,6.5,3.2,9.4,5.4
		c2.6,2,6.1,2.3,9,0.6l6.2-3.5l8,13.9l-6.2,3.5c-2.8,1.6-4.4,4.8-3.9,8c0.6,3.6,0.6,7.3,0,10.9c-0.4,3.2,1.1,6.4,3.9,8l6.2,3.5
		L264.6-59.3z"/>
</g>
</svg>
