<?xml version="1.0" encoding="utf-8"?>
<!-- Generator: Adobe Illustrator 19.1.1, SVG Export Plug-In . SVG Version: 6.00 Build 0)  -->
<svg version="1.1" id="Слой_1" xmlns="http://www.w3.org/2000/svg" xmlns:xlink="http://www.w3.org/1999/xlink" x="0px" y="0px"
	 viewBox="155 -155 480 480" style="enable-background:new 155 -155 480 480;" xml:space="preserve">
<style type="text/css">
	.st0{fill:#B1DCFF;}
	.st1{fill:#009BE5;}
</style>
<g>
	<path class="st0" d="M611,117v200h-56v-40H235v40h-56V117H611z"/>
	<path class="st0" d="M539-83h48v40h-48V-83z"/>
	<path class="st0" d="M203-83h48v40h-48V-83z"/>
	<path class="st0" d="M619-3v24H171V-3c0-8.8,7.2-16,16-16h416C611.8-19,619-11.8,619-3z"/>
	<path class="st0" d="M587,69c0,13.3-10.7,24-24,24s-24-10.7-24-24s10.7-24,24-24S587,55.7,587,69z"/>
	<path class="st0" d="M251,69c0,13.3-10.7,24-24,24s-24-10.7-24-24s10.7-24,24-24S251,55.7,251,69z"/>
</g>
<path class="st1" d="M627,13V-3c0-13.3-10.7-24-24-24v-16c0-4.4-3.6-8-8-8v-32c0-4.4-3.6-8-8-8h-48c-4.4,0-8,3.6-8,8v32
	c-4.4,0-8,3.6-8,8v16h-8v-24c0-4.4-3.6-8-8-8h-8v-72c0-13.3-10.7-24-24-24H315c-13.3,0-24,10.7-24,24v72h-8c-4.4,0-8,3.6-8,8v24h-8
	v-16c0-4.4-3.6-8-8-8v-32c0-4.4-3.6-8-8-8h-48c-4.4,0-8,3.6-8,8v32c-4.4,0-8,3.6-8,8v16c-13.3,0-24,10.7-24,24v16c-4.4,0-8,3.6-8,8
	v96c0,4.4,3.6,8,8,8h8v192c0,4.4,3.6,8,8,8h432c4.4,0,8-3.6,8-8V125h8c4.4,0,8-3.6,8-8V21C635,16.6,631.4,13,627,13z M547-75h32v24
	h-32V-75z M539-35h48v8h-48V-35z M307-131c0-4.4,3.6-8,8-8h160c4.4,0,8,3.6,8,8v72H307V-131z M291-43h208v16H291V-43z M211-75h32v24
	h-32V-75z M203-35h48v8h-48V-35z M179-3c0-4.4,3.6-8,8-8h416c4.4,0,8,3.6,8,8v16H179V-3z M243,309v-24h304v24H243z M603,309h-40v-32
	c0-4.4-3.6-8-8-8H235c-4.4,0-8,3.6-8,8v32h-40V125h416V309z M619,109H171V29h448V109z"/>
<path class="st1" d="M227,101c17.7,0,32-14.3,32-32s-14.3-32-32-32s-32,14.3-32,32S209.3,101,227,101z M227,53c8.8,0,16,7.2,16,16
	s-7.2,16-16,16s-16-7.2-16-16S218.2,53,227,53z"/>
<path class="st1" d="M219,61h16v16h-16V61z"/>
<path class="st1" d="M563,101c17.7,0,32-14.3,32-32s-14.3-32-32-32s-32,14.3-32,32S545.3,101,563,101z M563,53c8.8,0,16,7.2,16,16
	s-7.2,16-16,16s-16-7.2-16-16S554.2,53,563,53z"/>
<path class="st1" d="M555,61h16v16h-16V61z"/>
</svg>
